<svg xmlns="http://www.w3.org/2000/svg" viewBox="0 0 472.44681 472.44682">
  <g stroke="#0086e8" transform="translate(-109.24876 -143.37721)">
    <circle r="221.2234" cy="379.60062" cx="345.47217" fill="#3fbae8" stroke-width="30" stroke-linecap="round" stroke-linejoin="bevel"/>
    <path d="M344.46201 393.74274c-.0507-11.80086 15.88232-5.89041 19.61379-.0842 10.11205 15.73449-4.26987 34.40941-19.44542 39.31178-27.14549 8.76917-53.39816-13.07888-59.00976-38.97503-8.23524-38.00364 21.92619-72.72501 58.50464-78.70774 48.75331-7.97404 92.18243 30.77645 98.40572 78.03424 7.83138 59.46911-39.62552 111.70466-97.56385 118.10371-70.17108 7.7501-131.2639-48.47341-137.80169-117.09346-7.70455-80.86636 57.32047-150.84631 136.62307-157.49967 91.55799-7.68157 170.44417 66.16697 177.19765 156.15267 7.67373 102.24747-75.01313 190.05287-175.68228 196.89564-112.93558 7.67655-209.66945-83.85903-216.59362-195.21188-7.68714-123.62278 92.70477-229.29195 214.7415-236.2916" fill="#3fbae8" fill-rule="evenodd" stroke-width="30"/>
    <ellipse ry="9.7910643" rx="7.7707582" cy="395.25797" cx="345.97723" fill="#0086e8" stroke-width="23.54985619" stroke-linecap="round" stroke-linejoin="bevel"/>
  </g>
</svg>
