<svg version="1" xmlns="http://www.w3.org/2000/svg" width="933.333" height="933.333" viewBox="0 0 700.000000 700.000000"><path d="M326 1.1c-72.8 5.3-138.8 31.4-196.7 77.5-12.6 10.1-40.6 38.1-50.7 50.7-36.1 45.4-60.1 96.1-71.1 150.2C-7.8 355 1.6 432 34.5 500.7c18 37.5 38.6 66.5 68.5 96.3 17.2 17.2 28.7 27 46.8 39.7 102.7 72 237.6 83.1 350.9 28.8 37.5-18 66.5-38.6 96.3-68.5 17.2-17.2 27-28.7 39.7-46.8 72-102.7 83.1-237.6 28.8-350.9-18-37.5-38.6-66.5-68.5-96.3-29.8-29.9-58.8-50.5-96.3-68.5C446.6 8.6 384.7-3.3 326 1.1zm64.3 46.4c101.1 14 186 74.5 232.3 165.4 15.4 30.2 25.5 63.5 30.6 101.1 1.7 12.6 1.7 59.4 0 72-6.3 46.1-20.3 86.5-42.8 123.1-5 8.2-14.3 21.9-14.8 21.9 0 0 3.5-7.3 7.9-16.3 20.3-41.1 29.5-80.4 29.5-126.1 0-92.2-46.2-178-124-230-13-8.7-40.6-22.7-55.5-28.2-21.2-7.8-45.3-12.8-70.2-14.6-54.8-4-109.7 11.1-156.3 43-57.1 39.1-94.9 99.5-103.5 165.5-2 15.3-1.9 41.3.1 56.4 11.8 88 74.5 160.1 158 181.8 18.3 4.7 28.2 6 48.9 5.9 30.1 0 53.6-5.2 81.5-18.2 30.3-14 59.6-39.8 78.3-69 25.4-39.5 33.6-90.2 21.6-134.2-13.9-50.9-52.1-92.4-100.4-108.8-16.4-5.6-24-6.7-45.5-6.7-18.1.1-20.3.3-30.5 2.9-25.6 6.5-44.1 17-62.6 35.5-19 18.9-30.1 39.7-34.3 64-6.1 35.6 5.5 71.2 30.9 94.9 18.1 17 37.9 25.2 60.8 25.2 13.7 0 22.8-2 34.2-7.5 25.9-12.5 42-37.8 40.2-63.1-1.7-24.1-18.1-41.2-42.8-44.5-7.4-1-8.6-.9-14.2 1.1-17.2 6.2-25.7 17.1-25.7 33 0 13.6 6.8 24.7 18.4 30l5.8 2.7-3.3 1.4c-2.1.9-7 1.4-13 1.4-9 0-9.9-.2-17.1-3.8-14-6.9-26-22.6-29.4-38.6-7.8-37 18.6-75.4 60.1-87.3 6.8-1.9 10.3-2.3 23.5-2.3 13.1 0 16.7.4 23.4 2.3 41.3 11.9 71.8 46 80.1 89.3 1.9 10.5 1.9 31.1 0 42.5-7.9 45-42.7 85.9-88 103.3-29.1 11.1-58.8 12.8-89.1 5.1-30.2-7.8-55.5-22.7-78-46.2C183.9 440 167 397.6 167 352.3c.1-48.2 18.7-93.1 53.5-129.2 31.4-32.6 71.6-53.5 116.6-60.7 14.3-2.3 44.6-2.3 59.4 0 48.3 7.5 91.9 30.3 126 65.8 49 51 72.1 118.9 64 188.2C573.1 531.1 477.9 623.8 359 638.1c-16.1 1.9-48.3 1.4-65-1-61.1-9-114.3-36.1-158.7-80.9C75 495.5 44.4 411.4 52 327c7.8-86.4 53.2-165.8 125.6-219.7 45.5-33.8 96.5-54 154.9-61.3 9.8-1.2 44.9-.3 57.8 1.5z"/></svg>