<svg xmlns="http://www.w3.org/2000/svg" viewBox="0 0 1000 1000">
  <defs/>
  <path d="M478.05 11.58c-22.25 4.41-43.93 19.76-58.31 41.62-28 42.2-287.72 530.17-361.95 679.6-29.54 59.46-39.9 86.12-45.08 116.43C.62 917.9 29.2 965.86 94.23 986.19l14.39 4.41H889.3l14.39-4.41c34.53-10.93 63.68-33.38 75.58-58.7 8.05-16.69 10.74-29.35 10.74-49.1 0-36.06-9.4-64.45-46.04-137.92C876.06 603.9 630.16 140.29 584.7 63.37c-25.13-42.58-62.15-60.61-106.65-51.79zm42.01 65.99c7.67 7.29 5.18 3.07 73.46 130.43 216.37 404.34 312.66 589.83 323.21 622.44 11.12 33.76 12.28 55.24 4.22 70.78-4.6 8.63-15.73 20.33-23.59 24.74-5.75 3.07-29.92 3.26-392.64 3.84-263.36.19-389.58-.19-396.29-1.54-12.47-2.69-26.85-14.2-33.95-27.43-5.37-9.59-5.56-10.93-4.6-29.15 1.34-29.54 7.86-47 47.38-124.68 68.86-136 341.43-646.61 352.75-660.8 9.97-12.47 16.69-15.73 31.27-14.96 11.1.57 13.6 1.53 18.78 6.33z"/>
  <path d="M484.38 287.41c-9.02 2.3-25.51 11.89-30.69 18.03-2.69 3.26-7.1 10.17-9.97 15.54l-5.18 9.78-.57 150.57c-.58 167.84-.96 161.31 12.66 179.35 4.6 6.14 11.32 11.7 19.57 16.11 11.51 6.33 13.62 6.91 28.77 6.91 14.96 0 17.26-.57 28.39-6.52 13.43-7.29 19.18-13.23 26.85-27.81l5.18-9.78V330.76l-6.91-12.47c-13.63-24.93-41.06-37.21-68.1-30.88zM479.77 749.3c-51.21 17.84-56.97 85.55-9.59 111.64 11.51 6.33 13.62 6.9 28.77 6.9 14 0 17.65-.77 26.09-5.18 14.58-7.67 20.52-13.43 27.81-26.86 5.95-11.13 6.52-13.43 6.52-28.39 0-15.15-.58-17.26-6.91-28.77-14.57-26.46-45.26-38.93-72.69-29.34z"/>
</svg>
