<svg xmlns="http://www.w3.org/2000/svg" version="1" viewBox="0 0 700 700">
  <path d="M326 1A351 351 0 0 0 8 280 349 349 0 1 0 326 1zm64 47a305 305 0 0 1 206 483l8-16a276 276 0 0 0-150-384 245 245 0 0 0-330 194 216 216 0 0 0 158 238c18 4 28 6 49 5 30 0 53-5 81-18 30-14 60-40 78-69 26-39 34-90 22-134-14-51-52-92-100-109-17-5-24-7-46-7l-30 3c-26 7-45 17-63 36-19 19-30 40-34 64-6 35 5 71 31 95a86 86 0 0 0 95 17c25-12 42-37 40-63-2-24-18-41-43-44-7-1-9-1-14 1-17 6-26 17-26 33 0 14 7 25 18 30l6 3-3 1-13 1c-9 0-10 0-17-3-14-7-26-23-30-39-7-37 19-75 61-87 6-2 10-3 23-3s17 1 23 3a114 114 0 0 1 81 132 144 144 0 0 1-177 108 172 172 0 0 1-126-167c-1-48 18-93 53-129a205 205 0 0 1 302 5c49 51 72 119 64 188a258 258 0 0 1-293 221A289 289 0 0 1 52 327 320 320 0 0 1 333 46c9-1 44 0 57 2z"/>
</svg>
